<?xml version="1.0" encoding="UTF-8"?>
<svg xmlns="http://www.w3.org/2000/svg" version="1.1" viewBox="0 0 768 768">
  <!-- Generator: Adobe Illustrator 30.3.0, SVG Export Plug-In . SVG Version: 2.1.3 Build 182)  -->
  <defs>
    <style>
      .st0 {
        fill: #fff;
      }
    </style>
  </defs>
  <g id="Layer_2">
    <rect class="st0" x="64.05" y="66.28" width="638.3" height="638.3" rx="46.93" ry="46.93"/>
  </g>
  <g id="Layer_1">
    <g>
      <path d="M428.32,286.18v214.55c0,36.78-11.81,66.18-35.42,88.2-23.61,22.03-54.26,33.03-91.95,33.03s-66.52-10.56-89.22-31.67c-22.71-21.11-34.06-48.92-34.06-83.43v-6.81c0-4.53,2.27-6.81,6.81-6.81h22.48c4.53,0,6.81,2.28,6.81,6.81v4.77c0,25.43,8.06,45.97,24.18,61.64,16.11,15.67,37.12,23.5,63,23.5s48.12-8.28,65.39-24.86c17.25-16.57,25.88-38.48,25.88-65.73v-110.34c0-1.36-.34-2.04-1.02-2.04s-1.48.46-2.38,1.36c-10.45,16.8-23.62,28.72-39.5,35.76-15.9,7.04-34.29,10.56-55.17,10.56-58.57,0-97.4-26.33-116.47-79.01-6.81-15.89-10.22-39.5-10.22-70.83,0-27.69,2.72-49.26,8.17-64.7,8.62-26.79,23.16-47.78,43.59-63,20.43-15.21,46.08-22.82,76.96-22.82s58.68,7.95,80.71,23.84c22.02,15.9,36.89,37.69,44.61,65.39,4.53,15.44,6.81,36.33,6.81,62.66ZM355.45,384.6c15.43-12.03,25.65-27.81,30.65-47.34,4.09-13.62,6.13-31.55,6.13-53.81s-1.82-38.37-5.45-49.72c-4.54-19.98-14.54-36.1-29.97-48.36-15.44-12.26-34.97-18.39-58.57-18.39-22.25,0-41.21,5.68-56.87,17.03-15.67,11.35-26.22,27.93-31.67,49.72-4.09,9.99-6.13,27.02-6.13,51.08s2.27,41.78,6.81,53.13c5.45,19.53,15.67,35.19,30.65,47,14.98,11.81,34.05,17.71,57.21,17.71s41.77-6.01,57.21-18.05Z"/>
      <g>
        <path d="M589.03,531.84c-2.62,6.21-6.34,10.98-11.16,14.33-4.81,3.35-10.44,5.02-16.9,5.02h-4.76c-1.09,0-1.64-.55-1.64-1.65v-12.03c0-1.1.55-1.65,1.64-1.65h3.94c5.58,0,10.17-2.41,13.78-7.25,3.61-4.83,5.41-11.48,5.41-19.93,0-7.58-1.58-13.29-4.76-17.13-3.17-3.84-7.33-5.77-12.47-5.77-3.39,0-6.29.99-8.7,2.97-2.41,1.98-4.62,4.86-6.65,8.65-2.02,3.79-4.45,9.31-7.3,16.56-3.06,8.02-5.85,14.36-8.37,19.03-2.51,4.67-5.82,8.54-9.93,11.61-4.1,3.08-9.27,4.61-15.5,4.61-9.41,0-16.79-3.38-22.15-10.13-5.36-6.75-8.04-15.9-8.04-27.43,0-8.13,1.37-15.26,4.1-21.42,2.74-6.15,6.56-10.9,11.48-14.25,4.92-3.35,10.61-5.02,17.06-5.02h3.28c1.09,0,1.64.55,1.64,1.65v12.36c0,1.1-.55,1.65-1.64,1.65h-2.46c-5.69,0-10.42,2.28-14.19,6.84-3.77,4.56-5.66,10.85-5.66,18.86,0,6.81,1.39,12.08,4.18,15.82,2.79,3.74,6.81,5.6,12.06,5.6,3.61,0,6.56-.93,8.86-2.8,2.3-1.87,4.35-4.64,6.15-8.32,1.8-3.68,4.13-9.31,6.97-16.89,3.06-7.8,5.88-14.11,8.45-18.95,2.57-4.83,5.96-8.84,10.17-12.03,4.21-3.18,9.43-4.78,15.67-4.78,9.63,0,17.25,3.54,22.89,10.63,5.63,7.08,8.45,16.83,8.45,29.24,0,8.46-1.31,15.79-3.94,21.99Z"/>
        <path d="M590.01,448.57h-111.56c-1.09,0-1.64-.55-1.64-1.65v-12.52c0-1.1.55-1.65,1.64-1.65h111.56c1.1,0,1.64.55,1.64,1.65v12.52c0,1.1-.55,1.65-1.64,1.65Z"/>
        <path d="M591.08,413.48c-.38.22-.85.16-1.39-.17l-54.96-33.94c-.33-.22-.66-.22-.98,0l-54.96,33.94c-.44.22-.76.33-.98.33-.66,0-.98-.49-.98-1.48v-13.67c0-.77.38-1.43,1.15-1.98l43.48-26.52c.11-.11.16-.27.16-.49s-.05-.38-.16-.49l-43.48-26.52c-.76-.55-1.15-1.21-1.15-1.98v-13.51c0-.66.19-1.1.57-1.32.38-.22.85-.16,1.39.16l55.13,33.77c.33.11.66.11.98,0l54.8-33.77c.44-.22.77-.33.98-.33.66,0,.98.49.98,1.48v13.51c0,.77-.38,1.43-1.15,1.98l-43.31,26.52c-.22.11-.33.28-.33.49s.11.39.33.49l43.31,26.52c.77.55,1.15,1.21,1.15,1.98v13.67c0,.66-.19,1.1-.57,1.32Z"/>
        <path d="M478.45,231.27h10.5c1.1,0,1.64.55,1.64,1.65v31.63c0,.44.22.66.66.66h98.77c1.1,0,1.64.55,1.64,1.65v12.52c0,1.1-.55,1.65-1.64,1.65h-98.77c-.44,0-.66.22-.66.66v30.15c0,1.1-.55,1.65-1.64,1.65h-10.5c-1.09,0-1.64-.55-1.64-1.65v-78.91c0-1.1.55-1.65,1.64-1.65Z"/>
        <path d="M589.85,184.98h-46.1c-.44,0-.71.06-.82.16l-64.15,34.27c-.22.11-.49.16-.82.16-.76,0-1.15-.44-1.15-1.32v-13.51c0-.99.38-1.65,1.15-1.98l48.07-25.21c.22-.11.33-.27.33-.49s-.11-.38-.33-.49l-48.07-25.21c-.76-.33-1.15-.99-1.15-1.98v-13.67c0-.55.19-.96.57-1.24.38-.27.85-.25,1.39.08l64.15,34.43c.11.11.38.16.82.16h46.1c1.09,0,1.64.55,1.64,1.65v12.52c0,1.1-.55,1.65-1.64,1.65Z"/>
      </g>
      <g>
        <path d="M430.13,618.07c-.98-.98-1.47-2.23-1.47-3.75s.49-2.77,1.47-3.75,2.23-1.47,3.75-1.47,2.77.49,3.75,1.47c.98.98,1.47,2.23,1.47,3.75s-.49,2.77-1.47,3.75-2.23,1.47-3.75,1.47-2.77-.49-3.75-1.47Z"/>
        <path d="M455.63,617.06c-2.93-2.09-4.94-4.93-6.03-8.51-.81-2.5-1.22-5.79-1.22-9.86,0-3.75.41-7.03,1.22-9.86,1.09-3.48,3.11-6.25,6.07-8.31,2.96-2.06,6.48-3.1,10.55-3.1s7.63,1.03,10.67,3.1,5.02,4.67,5.95,7.82c.33.87.54,1.77.65,2.69,0,.44-.24.71-.73.82l-6.11.9h-.16c-.38,0-.65-.24-.81-.73l-.24-1.3c-.44-1.85-1.5-3.39-3.18-4.64-1.68-1.25-3.72-1.87-6.11-1.87s-4.32.62-5.95,1.87c-1.63,1.25-2.69,2.91-3.18,4.97-.49,1.96-.73,4.54-.73,7.74s.25,5.7.73,7.66c.54,2.17,1.62,3.88,3.22,5.13,1.6,1.25,3.57,1.87,5.91,1.87s4.44-.62,6.15-1.87c1.71-1.25,2.78-2.88,3.22-4.89.05-.05.07-.12.04-.2-.03-.08-.01-.15.04-.2v-.33c.16-.43.46-.6.9-.49l6.11.98c.43.11.65.33.65.65v.33c0,.49-.14,1.09-.41,1.79-.92,3.31-2.91,5.98-5.95,7.99s-6.6,3.01-10.67,3.01-7.66-1.04-10.59-3.14Z"/>
        <path d="M498.57,617.14c-2.99-2.04-5.08-4.88-6.27-8.51-.98-2.93-1.47-6.25-1.47-9.94s.46-7.12,1.39-9.78c1.19-3.58,3.29-6.4,6.27-8.43,2.99-2.04,6.54-3.06,10.67-3.06,3.91,0,7.32,1.02,10.23,3.06,2.91,2.04,4.98,4.82,6.23,8.35.98,2.77,1.47,6.03,1.47,9.78s-.49,7.14-1.47,10.02c-1.2,3.64-3.26,6.48-6.19,8.51-2.93,2.04-6.38,3.05-10.35,3.05s-7.52-1.02-10.51-3.05ZM514.78,611.6c1.63-1.22,2.8-2.95,3.5-5.17.6-2.06.9-4.62.9-7.66s-.27-5.57-.81-7.58c-.71-2.23-1.87-3.95-3.5-5.17-1.63-1.22-3.61-1.83-5.95-1.83s-4.16.61-5.79,1.83c-1.63,1.22-2.8,2.95-3.5,5.17-.6,1.9-.9,4.43-.9,7.58s.3,5.7.9,7.66c.65,2.23,1.8,3.95,3.46,5.17,1.66,1.22,3.65,1.83,5.99,1.83,2.17,0,4.07-.61,5.7-1.83Z"/>
        <path d="M590.23,581.21c2.39,2.47,3.58,5.91,3.58,10.31v27.21c0,.54-.27.81-.82.81h-6.11c-.54,0-.81-.27-.81-.81v-25.58c0-2.71-.75-4.87-2.24-6.48-1.49-1.6-3.49-2.4-5.99-2.4s-4.54.79-6.11,2.36-2.36,3.69-2.36,6.36v25.75c0,.54-.27.81-.81.81h-6.11c-.54,0-.81-.27-.81-.81v-25.58c0-2.71-.75-4.87-2.24-6.48-1.49-1.6-3.49-2.4-5.99-2.4s-4.5.79-5.99,2.36c-1.5,1.58-2.24,3.69-2.24,6.36v25.75c0,.54-.27.81-.82.81h-6.19c-.54,0-.81-.27-.81-.81v-39.84c0-.54.27-.81.81-.81h6.19c.54,0,.82.27.82.81v2.77c0,.11.04.19.12.24.08.05.18.03.29-.08,2.39-2.88,5.87-4.32,10.43-4.32,2.77,0,5.13.53,7.09,1.59,1.96,1.06,3.48,2.62,4.56,4.68.16.22.33.22.49,0,1.3-2.12,3.03-3.69,5.17-4.73,2.14-1.03,4.52-1.55,7.13-1.55,4.13,0,7.39,1.24,9.78,3.71Z"/>
      </g>
    </g>
  </g>
</svg>