<?xml version="1.0" encoding="UTF-8"?>
<!-- Generated by Pixelmator Pro 4.2 -->
<svg width="545" height="151" viewBox="0 0 545 151" xmlns="http://www.w3.org/2000/svg">
    <path id="Path" fill="#ffffff" stroke="none" d="M 117.769997 125.549995 C 112.160004 123.169998 107.839996 119.790001 104.82 115.43 C 101.790001 111.07 100.279999 105.959999 100.279999 100.099998 L 100.279999 95.779999 C 100.279999 94.790001 100.779999 94.290001 101.769997 94.290001 L 112.629997 94.290001 C 113.620003 94.290001 114.120003 94.790001 114.120003 95.779999 L 114.120003 99.349998 C 114.120003 104.409996 116.300003 108.580002 120.669998 111.860001 C 125.029999 115.139999 131.039993 116.769997 138.679993 116.769997 C 145.529999 116.769997 150.690002 115.330002 154.160004 112.449997 C 157.630005 109.57 159.369995 105.809998 159.369995 101.139999 C 159.369995 98.059998 158.470001 95.43 156.690002 93.25 C 154.910004 91.07 152.300003 89.059998 148.869995 87.220001 C 145.440002 85.379997 140.460007 83.18 133.910004 80.599998 C 126.660004 77.82 120.93 75.290001 116.720001 73.010002 C 112.5 70.729996 109 67.720001 106.220001 64.010002 C 103.440002 60.290001 102.059998 55.599998 102.059998 49.940002 C 102.059998 41.410004 105.110001 34.709999 111.209999 29.839996 C 117.309998 24.980003 125.57 22.550003 136 22.550003 C 143.339996 22.550003 149.789993 23.790001 155.350006 26.269997 C 160.910004 28.75 165.199997 32.220001 168.229996 36.690002 C 171.259995 41.160004 172.770004 46.32 172.770004 52.169998 L 172.770004 55.150002 C 172.770004 56.139999 172.270004 56.639999 171.279999 56.639999 L 160.119995 56.639999 C 159.130005 56.639999 158.630005 56.139999 158.630005 55.150002 L 158.630005 52.919998 C 158.630005 47.760002 156.570007 43.470001 152.460007 40.040001 C 148.339996 36.610001 142.660004 34.900002 135.419998 34.900002 C 129.270004 34.900002 124.510002 36.160004 121.129997 38.690002 C 117.75 41.220001 116.07 44.860001 116.07 49.629997 C 116.07 52.910004 116.910004 55.580002 118.599998 57.669998 C 120.279999 59.75 122.790001 61.610001 126.120003 63.260002 C 129.449997 64.889999 134.529999 67 141.380005 69.580002 C 148.419998 72.360001 154.130005 74.919998 158.5 77.25 C 162.860001 79.580002 166.490005 82.659996 169.360001 86.479996 C 172.240005 90.299995 173.669998 95.040001 173.669998 100.699997 C 173.669998 109.43 170.470001 116.349998 164.070007 121.459999 C 157.669998 126.57 148.860001 129.130005 137.649994 129.130005 C 130.009995 129.130005 123.379997 127.940002 117.779999 125.559998 L 117.760002 125.559998 Z"/>
    <path id="path1" fill="#ffffff" stroke="none" d="M 193.020004 126.440002 L 193.020004 25.230003 C 193.020004 24.239998 193.520004 23.739998 194.509995 23.739998 L 205.820007 23.739998 C 206.809998 23.739998 207.309998 24.239998 207.309998 25.230003 L 207.309998 126.449997 C 207.309998 127.440002 206.809998 127.940002 205.820007 127.940002 L 194.509995 127.940002 C 193.520004 127.940002 193.020004 127.440002 193.020004 126.449997 Z"/>
    <path id="path2" fill="#ffffff" stroke="none" d="M 224.720001 127.419998 C 224.520004 127.07 224.570007 126.650002 224.869995 126.159996 L 255.529999 76.299995 C 255.729996 76 255.729996 75.699997 255.529999 75.400002 L 224.869995 25.540001 C 224.669998 25.139999 224.570007 24.839996 224.570007 24.639999 C 224.570007 24.040001 225.020004 23.739998 225.910004 23.739998 L 238.270004 23.739998 C 238.970001 23.739998 239.559998 24.089996 240.050003 24.779999 L 264.01001 64.220001 C 264.109985 64.32 264.26001 64.370003 264.459991 64.370003 C 264.660004 64.370003 264.809998 64.32 264.910004 64.220001 L 288.880005 24.779999 C 289.380005 24.080002 289.970001 23.739998 290.660004 23.739998 L 302.869995 23.739998 C 303.470001 23.739998 303.859985 23.919998 304.059998 24.260002 C 304.26001 24.610001 304.209991 25.029999 303.910004 25.519997 L 273.399994 75.529999 C 273.299988 75.830002 273.299988 76.129997 273.399994 76.43 L 303.910004 126.139999 C 304.109985 126.540001 304.209991 126.839996 304.209991 127.040001 C 304.209991 127.639999 303.76001 127.940002 302.869995 127.940002 L 290.660004 127.940002 C 289.959991 127.940002 289.369995 127.589996 288.880005 126.900002 L 264.910004 87.599998 C 264.809998 87.400002 264.660004 87.299995 264.459991 87.299995 C 264.26001 87.299995 264.109985 87.400002 264.01001 87.599998 L 240.050003 126.900002 C 239.550003 127.599998 238.960007 127.940002 238.270004 127.940002 L 225.910004 127.940002 C 225.309998 127.940002 224.919998 127.769997 224.720001 127.419998 L 224.720001 127.419998 Z"/>
    <path id="path3" fill="#ffffff" stroke="none" d="M 389.339996 25.230003 L 389.339996 34.760002 C 389.339996 35.75 388.839996 36.25 387.850006 36.25 L 359.269989 36.25 C 358.869995 36.25 358.670013 36.450005 358.670013 36.849998 L 358.670013 126.449997 C 358.670013 127.440002 358.170013 127.940002 357.179993 127.940002 L 345.869995 127.940002 C 344.880005 127.940002 344.380005 127.440002 344.380005 126.449997 L 344.380005 36.840004 C 344.380005 36.440002 344.179993 36.239998 343.779999 36.239998 L 316.540009 36.239998 C 315.549988 36.239998 315.049988 35.739998 315.049988 34.75 L 315.049988 25.220001 C 315.049988 24.230003 315.549988 23.730003 316.540009 23.730003 L 387.839996 23.730003 C 388.829987 23.730003 389.329987 24.230003 389.329987 25.220001 L 389.329987 25.220001 Z"/>
    <path id="path4" fill="#ffffff" stroke="none" d="M 431.170013 126.290001 L 431.170013 84.459999 C 431.170013 84.059998 431.119995 83.809998 431.019989 83.709999 L 400.059998 25.510002 C 399.959991 25.309998 399.910004 25.059998 399.910004 24.760002 C 399.910004 24.059998 400.309998 23.720001 401.100006 23.720001 L 413.309998 23.720001 C 414.209991 23.720001 414.799988 24.07 415.089996 24.760002 L 437.859985 68.370003 C 437.959991 68.57 438.109985 68.669998 438.309998 68.669998 C 438.51001 68.669998 438.660004 68.57 438.76001 68.370003 L 461.529999 24.760002 C 461.829987 24.059998 462.429993 23.720001 463.309998 23.720001 L 475.670013 23.720001 C 476.170013 23.720001 476.540009 23.900002 476.790009 24.239998 C 477.040009 24.589996 477.01001 25.010002 476.709991 25.5 L 445.600006 83.699997 C 445.5 83.799995 445.450012 84.049995 445.450012 84.449997 L 445.450012 126.279999 C 445.450012 127.269997 444.950012 127.769997 443.959991 127.769997 L 432.649994 127.769997 C 431.660004 127.769997 431.160004 127.269997 431.160004 126.279999 L 431.160004 126.279999 Z"/>
    <g id="Group">
        <path id="path5" fill="#ffffff" stroke="none" d="M 489.440002 22.320007 C 490.079987 21.679993 490.899994 21.360001 491.910004 21.360001 C 492.920013 21.360001 493.730011 21.679993 494.380005 22.320007 C 495.029999 22.960007 495.339996 23.790001 495.339996 24.790001 C 495.339996 25.790001 495.019989 26.610001 494.380005 27.260002 C 493.73999 27.900002 492.910004 28.230003 491.910004 28.230003 C 490.910004 28.230003 490.089996 27.910004 489.440002 27.260002 C 488.799988 26.620003 488.480011 25.790001 488.480011 24.790001 C 488.480011 23.790001 488.799988 22.970001 489.440002 22.320007 Z"/>
        <path id="path6" fill="#ffffff" stroke="none" d="M 490.109985 39.099998 C 491.48999 37.169998 493.350006 35.849998 495.709991 35.129997 C 497.350006 34.590004 499.519989 34.330002 502.200012 34.330002 C 504.670013 34.330002 506.829987 34.599998 508.690002 35.129997 C 510.980011 35.840004 512.799988 37.18 514.159973 39.120003 C 515.52002 41.07 516.200012 43.379997 516.200012 46.059998 C 516.200012 48.739998 515.52002 51.080002 514.159973 53.080002 C 512.799988 55.080002 511.079987 56.389999 509.01001 56.989998 C 508.440002 57.200005 507.850006 57.349998 507.23999 57.419998 C 506.950012 57.419998 506.779999 57.260002 506.700012 56.940002 L 506.109985 52.919998 L 506.109985 52.809998 C 506.109985 52.559998 506.269989 52.379997 506.589996 52.270004 L 507.450012 52.110001 C 508.660004 51.82 509.679993 51.129997 510.51001 50.020004 C 511.329987 48.910004 511.73999 47.57 511.73999 46 C 511.73999 44.43 511.329987 43.160004 510.51001 42.090004 C 509.690002 41.020004 508.600006 40.32 507.23999 40 C 505.950012 39.68 504.25 39.520004 502.149994 39.520004 C 500.049988 39.520004 498.399994 39.68 497.109985 40 C 495.679993 40.360001 494.549988 41.059998 493.730011 42.120003 C 492.910004 43.18 492.5 44.470001 492.5 46.010002 C 492.5 47.550003 492.910004 48.93 493.730011 50.059998 C 494.549988 51.190002 495.619995 51.889999 496.950012 52.18 C 496.98999 52.220001 497.029999 52.220001 497.079987 52.209999 C 497.130005 52.200005 497.179993 52.209999 497.209991 52.239998 L 497.420013 52.239998 C 497.709991 52.349998 497.809998 52.540001 497.73999 52.830002 L 497.100006 56.849998 C 497.029999 57.139999 496.890015 57.279999 496.670013 57.279999 L 496.459991 57.279999 C 496.140015 57.279999 495.73999 57.190002 495.279999 57.010002 C 493.100006 56.400002 491.350006 55.099998 490.029999 53.099998 C 488.709991 51.099998 488.049988 48.760002 488.049988 46.080002 C 488.049988 43.400002 488.73999 41.040001 490.109985 39.110001 Z"/>
        <path id="path7" fill="#ffffff" stroke="none" d="M 490.059998 67.349998 C 491.399994 65.379997 493.269989 64.010002 495.660004 63.220001 C 497.589996 62.580002 499.769989 62.260002 502.200012 62.260002 C 504.630005 62.260002 506.880005 62.559998 508.630005 63.169998 C 510.98999 63.959999 512.840027 65.330002 514.179993 67.299995 C 515.52002 69.269997 516.190002 71.610001 516.190002 74.32 C 516.190002 76.889999 515.52002 79.139999 514.179993 81.049995 C 512.840027 82.959999 511.01001 84.330002 508.679993 85.150002 C 506.859985 85.790001 504.709991 86.110001 502.25 86.110001 C 499.790009 86.110001 497.549988 85.790001 495.660004 85.150002 C 493.269989 84.360001 491.399994 83.010002 490.059998 81.080002 C 488.720001 79.150002 488.049988 76.879997 488.049988 74.269997 C 488.049988 71.659996 488.720001 69.32 490.059998 67.349998 Z M 493.709991 78.019997 C 494.51001 79.089996 495.649994 79.860001 497.109985 80.32 C 498.470001 80.709999 500.149994 80.909996 502.149994 80.909996 C 504.149994 80.909996 505.809998 80.729996 507.140015 80.370003 C 508.600006 79.909996 509.73999 79.139999 510.540009 78.059998 C 511.339996 76.989998 511.75 75.68 511.75 74.150002 C 511.75 72.620003 511.350006 71.419998 510.540009 70.339996 C 509.73999 69.269997 508.600006 68.5 507.140015 68.029999 C 505.890015 67.639999 504.230011 67.440002 502.149994 67.440002 C 500.070007 67.440002 498.399994 67.639999 497.109985 68.029999 C 495.640015 68.459999 494.51001 69.220001 493.709991 70.309998 C 492.910004 71.400002 492.5 72.709999 492.5 74.25 C 492.5 75.68 492.899994 76.93 493.709991 78 Z"/>
        <path id="path8" fill="#ffffff" stroke="none" d="M 513.700012 127.669998 C 512.070007 129.23999 509.809998 130.029999 506.920013 130.029999 L 489.01001 130.029999 C 488.649994 130.029999 488.470001 129.850006 488.470001 129.48999 L 488.470001 125.470001 C 488.470001 125.110001 488.649994 124.93 489.01001 124.93 L 505.839996 124.93 C 507.630005 124.93 509.049988 124.440002 510.100006 123.459999 C 511.149994 122.479996 511.679993 121.159996 511.679993 119.519997 C 511.679993 117.879997 511.160004 116.529999 510.130005 115.5 C 509.100006 114.470001 507.700012 113.949997 505.950012 113.949997 L 489.01001 113.949997 C 488.649994 113.949997 488.470001 113.769997 488.470001 113.409996 L 488.470001 109.389999 C 488.470001 109.029999 488.649994 108.849998 489.01001 108.849998 L 505.839996 108.849998 C 507.630005 108.849998 509.049988 108.360001 510.100006 107.379997 C 511.149994 106.400002 511.679993 105.080002 511.679993 103.440002 C 511.679993 101.799995 511.160004 100.479996 510.130005 99.5 C 509.089996 98.519997 507.700012 98.029999 505.950012 98.029999 L 489.01001 98.029999 C 488.649994 98.029999 488.470001 97.849998 488.470001 97.489998 L 488.470001 93.419998 C 488.470001 93.059998 488.649994 92.879997 489.01001 92.879997 L 515.22998 92.879997 C 515.590027 92.879997 515.77002 93.059998 515.77002 93.419998 L 515.77002 97.489998 C 515.77002 97.849998 515.590027 98.029999 515.22998 98.029999 L 513.409973 98.029999 C 513.340027 98.029999 513.280029 98.059998 513.25 98.110001 C 513.210022 98.159996 513.22998 98.229996 513.299988 98.299995 C 515.190002 99.870003 516.140015 102.159996 516.140015 105.159996 C 516.140015 106.979996 515.789978 108.540001 515.090027 109.82 C 514.390015 111.110001 513.369995 112.110001 512.01001 112.82 C 511.869995 112.93 511.869995 113.029999 512.01001 113.139999 C 513.400024 114 514.440002 115.129997 515.119995 116.540001 C 515.799988 117.949997 516.140015 119.519997 516.140015 121.229996 C 516.140015 123.949997 515.330017 126.089996 513.700012 127.659996 Z"/>
    </g>
    <path id="path9" fill="#ffffff" stroke="none" d="M 81.839996 55.760002 L 81.839996 102.650002 C 81.839996 110.690002 79.260002 117.110001 74.099998 121.93 C 68.940002 126.739998 62.240002 129.149994 54 129.149994 C 45.759998 129.149994 39.459999 126.839996 34.5 122.229996 C 29.540001 117.620003 27.059999 111.540001 27.059999 104 L 27.059999 102.510002 C 27.059999 101.519997 27.559999 101.019997 28.549999 101.019997 L 33.459999 101.019997 C 34.450001 101.019997 34.950001 101.519997 34.950001 102.510002 L 34.950001 103.549995 C 34.950001 109.110001 36.709999 113.599998 40.23 117.019997 C 43.75 120.440002 48.34 122.159996 54 122.159996 C 59.66 122.159996 64.519997 120.349998 68.290001 116.729996 C 72.059998 113.110001 73.949997 108.32 73.949997 102.370003 L 73.949997 78.260002 C 73.949997 77.959999 73.879997 77.809998 73.730003 77.809998 C 73.580002 77.809998 73.410004 77.909996 73.209999 78.110001 C 70.93 81.779999 68.050003 84.389999 64.580002 85.919998 C 61.110001 87.459999 57.09 88.229996 52.52 88.229996 C 39.720001 88.229996 31.23 82.479996 27.07 70.959999 C 25.58 67.489998 24.84 62.330002 24.84 55.480003 C 24.84 49.43 25.440001 44.709999 26.629999 41.340004 C 28.51 35.489998 31.690001 30.900002 36.16 27.57 C 40.630001 24.25 46.23 22.580002 52.98 22.580002 C 59.73 22.580002 65.800003 24.32 70.620003 27.790001 C 75.43 31.260002 78.68 36.029999 80.370003 42.080002 C 81.360001 45.450005 81.860001 50.020004 81.860001 55.770004 Z M 65.919998 77.269997 C 69.290001 74.639999 71.529999 71.190002 72.620003 66.919998 C 73.510002 63.940002 73.959999 60.020004 73.959999 55.160004 C 73.959999 50.300003 73.559998 46.779999 72.769997 44.290001 C 71.779999 39.919998 69.589996 36.400002 66.220001 33.720001 C 62.849998 31.040001 58.580002 29.699997 53.419998 29.699997 C 48.560001 29.699997 44.41 30.940002 40.990002 33.419998 C 37.57 35.900002 35.259998 39.520004 34.07 44.290001 C 33.18 46.470001 32.73 50.200005 32.73 55.450005 C 32.73 60.700005 33.23 64.580002 34.220001 67.059998 C 35.41 71.330002 37.639999 74.75 40.919998 77.330002 C 44.189999 79.909996 48.360001 81.199997 53.419998 81.199997 C 58.48 81.199997 62.549999 79.889999 65.919998 77.260002 Z"/>
</svg>
